HIERARCHY
ROOT hip
{
	OFFSET 0 -2.1274 0
	CHANNELS 6 Xposition Yposition Zposition Zrotation Yrotation Xrotation 	
	JOINT abdomen
	{
		OFFSET 0 20.6881 -0.7315
		CHANNELS 3 Zrotation Xrotation Yrotation 		
		JOINT chest
		{
			OFFSET 0 11.7043 -0.4877
			CHANNELS 3 Zrotation Xrotation Yrotation 			
			JOINT neck
			{
				OFFSET 0 22.1894 -2.1946
				CHANNELS 3 Zrotation Xrotation Yrotation 				
				JOINT head
				{
					OFFSET -0.2438 7.0713 1.2192
					CHANNELS 3 Zrotation Xrotation Yrotation 					
					JOINT lefteye
					{
						OFFSET 4.1453 8.0467 8.0467
						CHANNELS 3 Zrotation Xrotation Yrotation 						
						End Site
						{
							OFFSET 1 0 0
						}
					}
					JOINT righteye
					{
						OFFSET -3.6576 8.0467 8.0467
						CHANNELS 3 Zrotation Xrotation Yrotation 						
						End Site
						{
							OFFSET 1 0 0
						}
					}
				}
			}
			JOINT rcollar
			{
				OFFSET -2.6822 19.2634 -4.8768
				CHANNELS 3 Zrotation Xrotation Yrotation 				
				JOINT rshldr
				{
					OFFSET -8.7782 -1.9507 1.463
					CHANNELS 3 Zrotation Xrotation Yrotation 					
					JOINT rforearm
					{
						OFFSET -28.1742 -1.7115 0.4877
						CHANNELS 3 Zrotation Xrotation Yrotation 						
						JOINT rhand
						{
							OFFSET -22.5879 0.7732 7.0714
							CHANNELS 3 Zrotation Xrotation Yrotation 							
							JOINT rthumb1
							{
								OFFSET -1.2192 -0.4879 3.4138
								CHANNELS 3 Zrotation Xrotation Yrotation 								
								JOINT rthumb2
								{
									OFFSET -3.3703 -0.5245 3.4138
									CHANNELS 3 Zrotation Xrotation Yrotation 									
									End Site
									{
										OFFSET -1.7827 -1.1821 1.4305
									}
								}
							}
							JOINT rindex1
							{
								OFFSET -7.7595 0.9383 5.6083
								CHANNELS 3 Zrotation Xrotation Yrotation 								
								JOINT rindex2
								{
									OFFSET -2.5406 -0.8842 1.5654
									CHANNELS 3 Zrotation Xrotation Yrotation 									
									End Site
									{
										OFFSET -1.6252 -0.2348 1.165
									}
								}
							}
							JOINT rmid1
							{
								OFFSET -8.2471 1.1821 3.4138
								CHANNELS 3 Zrotation Xrotation Yrotation 								
								JOINT rmid2
								{
									OFFSET -3.1016 -0.5901 1.0647
									CHANNELS 3 Zrotation Xrotation Yrotation 									
									End Site
									{
										OFFSET -2.4855 -0.3289 0.8374
									}
								}
							}
							JOINT rring1
							{
								OFFSET -8.8282 0.5467 1.5168
								CHANNELS 3 Zrotation Xrotation Yrotation 								
								JOINT rring2
								{
									OFFSET -2.6093 -0.8198 -0.0198
									CHANNELS 3 Zrotation Xrotation Yrotation 									
									End Site
									{
										OFFSET -2.3384 -0.2941 0.1681
									}
								}
							}
							JOINT rpinky1
							{
								OFFSET -8.272 -0.0478 -0.4584
								CHANNELS 3 Zrotation Xrotation Yrotation 								
								JOINT rpinky2
								{
									OFFSET -1.8273 -0.6474 -0.701
									CHANNELS 3 Zrotation Xrotation Yrotation 									
									End Site
									{
										OFFSET -1.6923 -0.5177 -0.6072
									}
								}
							}
						}
					}
				}
			}
			JOINT lcollar
			{
				OFFSET 2.6822 19.2634 -4.8768
				CHANNELS 3 Zrotation Xrotation Yrotation 				
				JOINT lshldr
				{
					OFFSET 8.7782 -1.9507 1.463
					CHANNELS 3 Zrotation Xrotation Yrotation 					
					JOINT lforearm
					{
						OFFSET 28.1742 -1.7115 0.4877
						CHANNELS 3 Zrotation Xrotation Yrotation 						
						JOINT lhand
						{
							OFFSET 22.5879 0.7732 7.0714
							CHANNELS 3 Zrotation Xrotation Yrotation 							
							JOINT lthumb1
							{
								OFFSET 1.2192 -0.4879 3.4138
								CHANNELS 3 Zrotation Xrotation Yrotation 								
								JOINT lthumb2
								{
									OFFSET 3.3703 -0.5245 3.4138
									CHANNELS 3 Zrotation Xrotation Yrotation 									
									End Site
									{
										OFFSET 1.7827 -1.1821 1.4305
									}
								}
							}
							JOINT lindex1
							{
								OFFSET 7.7595 0.9383 5.6083
								CHANNELS 3 Zrotation Xrotation Yrotation 								
								JOINT lindex2
								{
									OFFSET 2.5406 -0.8842 1.5654
									CHANNELS 3 Zrotation Xrotation Yrotation 									
									End Site
									{
										OFFSET 1.6252 -0.2348 1.165
									}
								}
							}
							JOINT lmid1
							{
								OFFSET 8.2471 1.1821 3.4138
								CHANNELS 3 Zrotation Xrotation Yrotation 								
								JOINT lmid2
								{
									OFFSET 3.1016 -0.5901 1.0647
									CHANNELS 3 Zrotation Xrotation Yrotation 									
									End Site
									{
										OFFSET 2.4855 -0.3289 0.8374
									}
								}
							}
							JOINT lring1
							{
								OFFSET 8.8282 0.5467 1.5168
								CHANNELS 3 Zrotation Xrotation Yrotation 								
								JOINT lring2
								{
									OFFSET 2.6093 -0.8198 -0.0198
									CHANNELS 3 Zrotation Xrotation Yrotation 									
									End Site
									{
										OFFSET 2.3384 -0.2941 0.1681
									}
								}
							}
							JOINT lpinky1
							{
								OFFSET 8.272 -0.0478 -0.4584
								CHANNELS 3 Zrotation Xrotation Yrotation 								
								JOINT lpinky2
								{
									OFFSET 1.8273 -0.6474 -0.701
									CHANNELS 3 Zrotation Xrotation Yrotation 									
									End Site
									{
										OFFSET 1.6923 -0.5177 -0.6072
									}
								}
							}
						}
					}
				}
			}
		}
	}
	JOINT rbuttock
	{
		OFFSET -8.7782 4.3508 1.2192
		CHANNELS 3 Zrotation Xrotation Yrotation 		
		JOINT rthigh
		{
			OFFSET 0 -1.7069 -2.1946
			CHANNELS 3 Zrotation Xrotation Yrotation 			
			JOINT rshin
			{
				OFFSET 0 -36.8199 0.7315
				CHANNELS 3 Zrotation Xrotation Yrotation 				
				JOINT rfoot
				{
					OFFSET 0.7315 -45.1104 -5.1206
					CHANNELS 3 Zrotation Xrotation Yrotation 					
					End Site
					{
						OFFSET -1.1221 -3.6996 12.103
					}
				}
			}
		}
	}
	JOINT lbuttock
	{
		OFFSET 8.7782 4.3508 1.2192
		CHANNELS 3 Zrotation Xrotation Yrotation 		
		JOINT lthigh
		{
			OFFSET 0 -1.7069 -2.1946
			CHANNELS 3 Zrotation Xrotation Yrotation 			
			JOINT lshin
			{
				OFFSET 0 -36.8199 0.7315
				CHANNELS 3 Zrotation Xrotation Yrotation 				
				JOINT lfoot
				{
					OFFSET -0.7315 -45.1104 -5.1206
					CHANNELS 3 Zrotation Xrotation Yrotation 					
					End Site
					{
						OFFSET 1.1221 -3.6996 12.103
					}
				}
			}
		}
	}
}
MOTION
Frames: 14
Frame Time: 0.008333
87.9175 66.2549 53.5677 1.2445 -4.7104 7.0611 -5.41398 9.37714 2.76881 0.545782 -3.61264 0.490622 10.9123 4.62893 16.4551 -35.0389 13.2918 35.1943 -0 0 0 -0 0 0 -0 -0 0 86.1253 32.6657 -8.95109 -23.3819 -17.9852 47.71 -0.033656 -5.22926 -0.736993 0 -0 -0 0 -0 -0 0 -0 -0 7.73091 5.47488 0.417314 0 -0 -0 2.90554 0.965183 0.102902 0 -0 -0 10.2786 0.731801 0.025912 0 -0 -0 2.22167 -0.733487 -0.20892 -0 -0 0 -81.2883 20.324 5.668 25.7601 -22.834 -55.7929 0.035254 -5.35155 0.754328 -0 -0 0 -0 -0 0 -0 -0 0 -7.73091 5.47488 -0.417314 -0 -0 0 -2.90554 0.965183 -0.102902 -0 -0 0 -10.2786 0.731801 -0.025912 -0 -0 0 -2.22167 -0.733487 0.20892 -0 0 -0 -4.74446 -26.5424 -10.9558 -170.776 81.6719 170.231 -1.36693 -27.3372 4.2136 0 0 0 -8.9155 -13.6066 -2.89281 0.102595 14.0767 0.508719 0.863822 -1.737 -5.93856 
87.8411 66.2986 54.132 1.1436 -4.7348 7.1025 -5.42097 9.43916 2.53817 0.592242 -3.54917 0.450633 11.0416 4.60408 16.5373 -35.1204 13.1785 35.2951 -0 0 0 -0 0 0 -0 -0 0 85.922 32.3653 -8.6959 -23.2899 -17.8275 47.4294 -0.034297 -5.25899 -0.741234 0 -0 -0 0 -0 -0 0 -0 -0 7.73091 5.47488 0.417314 0 -0 -0 2.90554 0.965183 0.102902 0 -0 -0 10.2786 0.731801 0.025912 0 -0 -0 2.22167 -0.733487 -0.20892 -0 -0 0 -80.8496 20.4423 5.41434 25.7207 -22.7381 -55.6353 0.033409 -5.20078 0.732961 -0 -0 0 -0 -0 0 -0 -0 0 -7.73091 5.47488 -0.417314 -0 -0 0 -2.90554 0.965183 -0.102902 -0 -0 0 -10.2786 0.731801 -0.025912 -0 -0 0 -2.22167 -0.733487 0.20892 -0 0 -0 -5.02005 -28.8355 -11.3369 -169.812 82.5398 169.254 -1.47996 -26.7251 3.38603 0 0 0 -8.88808 -12.522 -2.77603 0.088561 13.0731 0.425428 0.927333 -1.51657 -6.22422 
87.8023 66.3059 54.7275 1.1757 -4.6626 7.0816 -5.34637 9.48501 2.30011 0.60195 -3.40662 0.405957 11.233 4.52179 16.6298 -35.241 13.101 35.4129 -0 0 0 -0 0 0 0 -0 -0 85.6754 32.0353 -8.33911 -23.1648 -17.6148 47.0565 -0.034115 -5.21717 -0.735348 0 -0 -0 0 -0 -0 0 -0 -0 7.73091 5.47488 0.417314 0 -0 -0 2.90554 0.965183 0.102902 0 -0 -0 10.2786 0.731801 0.025912 0 -0 -0 2.22167 -0.733487 -0.20892 0 -0 -0 -80.3315 20.5596 5.05177 25.6677 -22.6102 -55.4282 0.031151 -4.9945 0.703757 -0 -0 0 -0 -0 0 -0 -0 0 -7.73091 5.47488 -0.417314 -0 -0 0 -2.90554 0.965183 -0.102902 -0 -0 0 -10.2786 0.731801 -0.025912 -0 -0 0 -2.22167 -0.733487 0.20892 -0 0 -0 -5.26729 -31.1532 -11.7655 -168.546 83.4525 167.989 -1.62194 -26.1104 2.39843 0 0 0 -8.80615 -11.5306 -2.72966 0.077886 12.1749 0.352148 0.984044 -1.37611 -6.47779 
87.8187 66.441 55.4378 1.4727 -4.4842 7.1032 -5.25173 9.52683 2.06098 0.616577 -3.27289 0.35944 11.4195 4.44902 16.7155 -35.3334 13.0418 35.52 -0 0 0 -0 0 0 0 -0 -0 85.4353 31.694 -8.00171 -23.0383 -17.4015 46.6901 -0.0344 -5.23631 -0.738065 -0 -0 -0 -0 -0 -0 -0 -0 -0 7.73091 5.47488 0.417314 -0 -0 -0 2.90554 0.965183 0.102902 -0 -0 -0 10.2786 0.731801 0.025912 -0 -0 -0 2.22167 -0.733487 -0.20892 0 -0 -0 -79.8307 20.6524 4.70897 25.6061 -22.4632 -55.1904 0.027769 -4.70533 0.662827 -0 -0 0 -0 -0 0 -0 -0 0 -7.73091 5.47488 -0.417314 -0 -0 0 -2.90554 0.965183 -0.102902 -0 -0 0 -10.2786 0.731801 -0.025912 -0 -0 0 -2.22167 -0.733487 0.20892 -0 0 -0 -5.5185 -33.4568 -12.1917 -166.708 84.4404 166.166 -1.78897 -25.4614 1.32477 0 0 0 -8.70319 -10.5866 -2.7067 0.068807 11.358 0.287213 1.03812 -1.272 -6.68387 
87.7922 66.7317 56.1758 1.504 -4.4357 7.2363 -5.19842 9.57677 1.82708 0.677496 -3.2359 0.313909 11.5334 4.4526 16.7771 -35.3304 12.9833 35.5888 -0 0 0 -0 0 0 0 -0 -0 85.248 31.3609 -7.80265 -22.9454 -17.2459 46.4275 -0.036553 -5.44889 -0.768131 -0 -0 -0 -0 -0 -0 -0 -0 -0 7.73091 5.47488 0.417314 -0 -0 -0 2.90554 0.965183 0.102902 -0 -0 -0 10.2786 0.731801 0.025912 -0 -0 -0 2.22167 -0.733487 -0.20892 0 -0 -0 -79.445 20.6984 4.51515 25.5413 -22.3101 -54.9406 0.022794 -4.3059 0.606308 -0 -0 0 -0 -0 0 -0 -0 0 -7.73091 5.47488 -0.417314 -0 -0 0 -2.90554 0.965183 -0.102902 -0 -0 0 -10.2786 0.731801 -0.025912 -0 -0 0 -2.22167 -0.733487 0.20892 -0 0 -0 -5.79453 -35.7097 -12.558 -163.698 85.5303 163.181 -1.97827 -24.7489 0.2385 0 0 0 -8.61616 -9.64452 -2.66105 0.059269 10.5982 0.22906 1.09444 -1.1607 -6.82712 
87.7349 66.8233 56.8372 1.4996 -4.47 7.3326 -5.20796 9.64046 1.58501 0.804996 -3.35274 0.266035 11.5369 4.57407 16.8097 -35.1761 12.9016 35.6051 -0 0 0 -0 0 0 0 -0 -0 85.138 31.0456 -7.80606 -22.9081 -17.1837 46.3238 -0.042556 -5.93629 -0.837227 -0 -0 -0 -0 -0 -0 -0 -0 -0 7.73091 5.47488 0.417314 -0 -0 -0 2.90554 0.965183 0.102902 -0 -0 -0 10.2786 0.731801 0.025912 -0 -0 -0 2.22167 -0.733487 -0.20892 0 -0 -0 -79.2286 20.6862 4.55142 25.4749 -22.155 -54.6875 0.016276 -3.73639 0.525815 -0 -0 0 -0 -0 0 -0 -0 0 -7.73091 5.47488 -0.417314 -0 -0 0 -2.90554 0.965183 -0.102902 -0 -0 0 -10.2786 0.731801 -0.025912 -0 -0 0 -2.22167 -0.733487 0.20892 -0 0 -0 -6.10822 -37.9489 -12.854 -158.19 86.6938 157.715 -2.22251 -23.9596 -0.975321 0 0 0 -8.5672 -8.69388 -2.59594 0.049765 9.90794 0.178439 1.1558 -1.02879 -6.87229 
87.7146 66.7914 57.5024 1.8579 -4.4755 7.3125 -5.24573 9.71059 1.33639 0.973523 -3.56531 0.21565 11.4724 4.76984 16.8226 -34.9193 12.8124 35.5859 -0 0 0 -0 0 0 0 -0 -0 85.0724 30.737 -7.93546 -22.9054 -17.1793 46.3164 -0.052866 -6.61246 -0.933403 -0 -0 -0 -0 -0 -0 -0 -0 -0 7.73091 5.47488 0.417314 -0 -0 -0 2.90554 0.965183 0.102902 -0 -0 -0 10.2786 0.731801 0.025912 -0 -0 -0 2.22167 -0.733487 -0.20892 0 -0 -0 -79.1204 20.6299 4.73347 25.4034 -21.9899 -54.4203 0.010065 -3.02889 0.426009 -0 -0 0 -0 -0 0 -0 -0 0 -7.73091 5.47488 -0.417314 -0 -0 0 -2.90554 0.965183 -0.102902 -0 -0 0 -10.2786 0.731801 -0.025912 -0 -0 0 -2.22167 -0.733487 0.20892 -0 0 -0 -6.43257 -40.1813 -13.1029 -145.762 87.872 145.344 -2.49799 -23.108 -2.30608 0 0 0 -8.53264 -7.75846 -2.53066 0.041965 9.29375 0.135548 1.21816 -0.900003 -6.83797 
87.6423 66.7911 58.1052 1.9518 -4.4041 7.3387 -5.289 9.78003 1.11015 1.15574 -3.78874 0.170319 11.3929 4.97904 16.8206 -34.6495 12.7577 35.5506 -0 0 0 -0 0 0 0 -0 -0 85.0099 30.4242 -8.09841 -22.9091 -17.1859 46.3255 -0.066336 -7.35876 -1.03994 0 -0 -0 0 -0 -0 0 -0 -0 7.73091 5.47488 0.417314 0 -0 -0 2.90554 0.965183 0.102902 0 -0 -0 10.2786 0.731801 0.025912 0 -0 -0 2.22167 -0.733487 -0.20892 0 -0 -0 -79.0458 20.5449 4.94257 25.3247 -21.8107 -54.128 0.005721 -2.2939 0.322514 -0 -0 0 -0 -0 0 -0 -0 0 -7.73091 5.47488 -0.417314 -0 -0 0 -2.90554 0.965183 -0.102902 -0 -0 0 -10.2786 0.731801 -0.025912 -0 -0 0 -2.22167 -0.733487 0.20892 -0 0 -0 -6.71583 -42.3267 -13.287 -105.359 88.7945 105.002 -2.73149 -22.2138 -3.498 0 0 0 -8.48414 -6.84362 -2.44388 0.035206 8.72299 0.098104 1.27693 -0.786573 -6.78957 
87.5424 66.8054 58.6774 1.8449 -4.3259 7.4715 -5.31532 9.84169 0.935256 1.3247 -3.93816 0.137626 11.351 5.14078 16.8083 -34.4562 12.7799 35.5181 -0 0 0 -0 0 0 0 -0 -0 84.9113 30.0968 -8.20362 -22.891 -17.1566 46.2714 -0.080276 -8.05659 -1.13988 0 -0 -0 0 -0 -0 0 -0 -0 7.73091 5.47488 0.417314 0 -0 -0 2.90554 0.965183 0.102902 0 -0 -0 10.2786 0.731801 0.025912 0 -0 -0 2.22167 -0.733487 -0.20892 0 -0 -0 -78.9313 20.4474 5.0602 25.2364 -21.6127 -53.7998 0.003308 -1.64196 0.230826 -0 -0 0 -0 0 0 -0 -0 0 -7.73091 5.47488 -0.417314 -0 -0 0 -2.90554 0.965183 -0.102902 -0 -0 0 -10.2786 0.731801 -0.025912 -0 -0 0 -2.22167 -0.733487 0.20892 -0 0 -0 -6.90153 -44.3052 -13.3824 -41.1003 88.2877 40.7899 -2.8686 -21.3033 -4.30275 0 0 0 -8.39468 -5.95462 -2.3144 0.028609 8.16298 0.06387 1.32811 -0.700793 -6.79251 
87.4188 66.8937 59.3294 1.6771 -4.488 7.5235 -5.31174 9.89307 0.835269 1.49066 -3.9755 0.12414 11.3454 5.239 16.7759 -34.3663 12.9085 35.4815 -0 0 0 -0 0 0 0 -0 -0 84.7447 29.7539 -8.21622 -22.8397 -17.0728 46.1224 -0.09335 -8.67368 -1.22852 0 -0 -0 0 -0 -0 0 -0 -0 7.73091 5.47488 0.417314 0 -0 -0 2.90554 0.965183 0.102902 0 -0 -0 10.2786 0.731801 0.025912 0 -0 -0 2.22167 -0.733487 -0.20892 0 -0 -0 -78.7505 20.3424 5.02865 25.1286 -21.3752 -53.4009 0.001836 -1.10613 0.155498 -0 -0 0 -0 -0 0 -0 -0 0 -7.73091 5.47488 -0.417314 -0 -0 0 -2.90554 0.965183 -0.102902 -0 -0 0 -10.2786 0.731801 -0.025912 -0 -0 0 -2.22167 -0.733487 0.20892 -0 0 -0 -6.91154 -46.1038 -13.3138 -19.2033 86.692 18.9244 -2.91639 -20.3677 -4.61098 0 0 0 -8.23397 -5.11103 -2.11515 0.022417 7.63028 0.034064 1.3677 -0.657401 -6.86648 
87.2612 66.9673 60.0008 1.4369 -4.7898 7.5529 -5.29292 9.93825 0.78952 1.66239 -3.95116 0.124314 11.3534 5.30613 16.7245 -34.3309 13.1151 35.435 -0 0 0 -0 0 0 -0 -0 0 84.5394 29.4003 -8.1891 -22.7708 -16.9607 45.925 -0.10697 -9.2735 -1.31498 0 0 -0 0 0 -0 0 0 -0 7.73091 5.47488 0.417314 0 0 -0 2.90554 0.965183 0.102902 0 0 -0 10.2786 0.731801 0.025912 0 0 -0 2.22167 -0.733487 -0.20892 -0 -0 0 -78.5454 20.2212 4.92007 25.0033 -21.1041 -52.9489 0.000803 -0.62629 0.088039 -0 -0 0 -0 -0 0 -0 -0 0 -7.73091 5.47488 -0.417314 -0 -0 0 -2.90554 0.965183 -0.102902 -0 -0 0 -10.2786 0.731801 -0.025912 -0 -0 0 -2.22167 -0.733487 0.20892 -0 0 -0 -6.76492 -47.7645 -13.0888 -11.5257 84.7483 11.2693 -2.92547 -19.4033 -4.58104 0 0 0 -8.02742 -4.30383 -1.86462 0.017281 7.13391 0.009207 1.39888 -0.646025 -6.97583 
87.1739 66.9588 60.6569 1.5233 -4.8337 7.5839 -5.27776 9.98003 0.760625 1.81084 -3.91303 0.127561 11.395 5.35404 16.6749 -34.3253 13.355 35.3994 -0 0 0 -0 0 0 -0 -0 0 84.349 29.0344 -8.16312 -22.6969 -16.841 45.7158 -0.121527 -9.88107 -1.40283 -0 0 0 -0 0 0 -0 0 0 7.73091 5.47488 0.417314 -0 0 0 2.90554 0.965183 0.102902 -0 0 0 10.2786 0.731801 0.025912 -0 0 0 2.22167 -0.733487 -0.20892 -0 -0 0 -78.3456 20.079 4.81084 24.8777 -20.8368 -52.511 0.00015 -0.17316 0.024338 -0 -0 0 -0 -0 0 -0 -0 0 -7.73091 5.47488 -0.417314 -0 -0 0 -2.90554 0.965183 -0.102902 -0 -0 0 -10.2786 0.731801 -0.025912 -0 -0 0 -2.22167 -0.733487 0.20892 -0 0 -0 -6.56317 -49.2881 -12.8139 -7.92089 82.6697 7.68009 -2.91352 -18.4441 -4.36816 0 0 0 -7.83083 -3.49543 -1.60992 0.012644 6.62986 -0.013936 1.42874 -0.641339 -7.10292 
87.1134 66.9908 61.3175 1.6206 -4.6919 7.5016 -5.28504 10.0212 0.711176 1.90697 -3.90899 0.123299 11.4904 5.39457 16.6479 -34.3252 13.5831 35.3954 -0 0 0 -0 0 0 -0 -0 0 84.2259 28.6544 -8.17859 -22.6312 -16.7352 45.5313 -0.137725 -10.5214 -1.49571 -0 0 0 -0 0 0 -0 0 0 7.73091 5.47488 0.417314 -0 0 0 2.90554 0.965183 0.102902 -0 0 0 10.2786 0.731801 0.025912 -0 0 0 2.22167 -0.733487 -0.20892 -0 -0 0 -78.1796 19.9111 4.77712 24.7716 -20.6144 -52.1522 9.8e-005 0.282523 -0.039706 -0 -0 0 -0 -0 0 -0 -0 0 -7.73091 5.47488 -0.417314 -0 -0 0 -2.90554 0.965183 -0.102902 -0 -0 0 -10.2786 0.731801 -0.025912 -0 -0 0 -2.22167 -0.733487 0.20892 -0 0 -0 -6.42744 -50.6748 -12.6104 -5.91601 80.5773 5.68632 -2.88711 -17.5244 -4.12337 0 0 0 -7.69792 -2.64839 -1.39807 0.007755 6.07412 -0.03858 1.46457 -0.618037 -7.2301 
87.0541 67.1038 62.004 1.6915 -4.6723 7.4465 -5.32157 10.062 0.634098 1.91916 -3.96837 0.108761 11.6825 5.4314 16.6539 -34.3572 13.819 35.4478 -0 0 0 -0 0 0 -0 -0 0 84.2045 28.2367 -8.25553 -22.5754 -16.6461 45.3744 -0.156714 -11.229 -1.59874 -0 0 0 -0 0 0 -0 0 0 7.73091 5.47488 0.417314 -0 0 0 2.90554 0.965183 0.102902 -0 0 0 10.2786 0.731801 0.025912 -0 0 0 2.22167 -0.733487 -0.20892 -0 -0 0 -78.0619 19.7025 4.87055 24.7 -20.4659 -51.9136 0.000575 0.782079 -0.109909 -0 -0 0 -0 -0 0 -0 -0 0 -7.73091 5.47488 -0.417314 -0 -0 0 -2.90554 0.965183 -0.102902 -0 -0 0 -10.2786 0.731801 -0.025912 -0 -0 0 -2.22167 -0.733487 0.20892 -0 0 -0 -6.41331 -51.9123 -12.5292 -4.63458 78.461 4.40726 -2.82411 -16.6392 -3.76786 0 0 0 -7.65012 -1.68128 -1.24716 0.0023 5.34261 -0.064557 1.51623 -0.511716 -7.36456 
